<svg width="120" height="120" viewBox="0 0 120 120" fill="none" xmlns="http://www.w3.org/2000/svg" xmlns:xlink="http://www.w3.org/1999/xlink">
<circle cx="60" cy="60" r="50" fill="url(#pf_0_1_38)"/>
<path d="M60,0C70.458,0 80.735,2.734 89.811,7.93C98.887,13.126 106.447,20.604 111.742,29.622C117.037,38.641 119.882,48.887 119.996,59.345C120.111,69.802 117.489,80.108 112.393,89.24L109.765,87.773C114.606,79.099 117.095,69.311 116.987,59.378C116.878,49.445 114.176,39.713 109.146,31.146C104.117,22.58 96.936,15.477 88.315,10.541C79.695,5.606 69.934,3.01 60,3.01L60,0Z" stroke="#89A1FF" stroke-width="1" stroke-miterlimit="3.999327"/>
<path d="M52.586,70.586C51.805,71.367 51.805,72.633 52.586,73.414C53.367,74.195 54.633,74.195 55.414,73.414L52.586,70.586ZM66,60L67.414,61.414C68.195,60.633 68.195,59.367 67.414,58.586L66,60ZM55.414,46.586C54.633,45.805 53.367,45.805 52.586,46.586C51.805,47.367 51.805,48.633 52.586,49.414L55.414,46.586ZM55.414,73.414L67.414,61.414L64.586,58.586L52.586,70.586L55.414,73.414ZM67.414,58.586L55.414,46.586L52.586,49.414L64.586,61.414L67.414,58.586Z" fill="#FFFFFF"/>
<defs>
<linearGradient id="pf_0_1_38" x1="10" y1="58.333" x2="110" y2="60" gradientUnits="userSpaceOnUse">
<stop stop-color="#DEE5FF"/>
<stop offset="1" stop-color="#809AFF"/>
</linearGradient>
</defs>
</svg>
